HIERARCHY
ROOT Hips
{
	OFFSET 0.000000 118.718704 0.000000
	CHANNELS 6 Xposition Yposition Zposition Xrotation Yrotation Zrotation 
	JOINT Spine
	{
		OFFSET 0.000000 13.214798 0.000000
		CHANNELS 3 Xrotation Yrotation Zrotation
		JOINT Spine1
		{
			OFFSET -0.004367 6.762400 0.000000
			CHANNELS 3 Xrotation Yrotation Zrotation
			JOINT Spine1_split
			{
				OFFSET -0.004367 6.762400 0.000000
				CHANNELS 3 Xrotation Yrotation Zrotation
				JOINT Spine2
				{
					OFFSET -0.004367 6.762400 0.000000
					CHANNELS 3 Xrotation Yrotation Zrotation
					JOINT Neck
					{
						OFFSET -0.006000 23.723495 -1.446200
						CHANNELS 3 Xrotation Yrotation Zrotation
						JOINT Head
						{
							OFFSET 0.000000 10.037094 3.529500
							CHANNELS 3 Xrotation Yrotation Zrotation
							JOINT HeadTop_End
							{
								OFFSET 0.000000 17.783005 3.803600
								CHANNELS 3 Xrotation Yrotation Zrotation
								End Site
								{
									OFFSET 0.000000 0.000000 0.000000
								}
							}
						}
					}
					JOINT LeftShoulder
					{
						OFFSET 5.652450 9.943001 -1.983000
						CHANNELS 3 Xrotation Yrotation Zrotation
						JOINT LeftShoulder_split
						{
							OFFSET 5.652450 9.943001 -1.983000
							CHANNELS 3 Xrotation Yrotation Zrotation
							JOINT LeftArm
							{
								OFFSET 11.306598 -5.748199 -0.270300
								CHANNELS 3 Xrotation Yrotation Zrotation
								JOINT LeftForeArm
								{
									OFFSET 30.736700 0.000000 0.000000
									CHANNELS 3 Xrotation Yrotation Zrotation
									JOINT LeftHand
									{
										OFFSET 26.713104 0.000000 0.000000
										CHANNELS 3 Xrotation Yrotation Zrotation
										JOINT LeftHandThumb1
										{
											OFFSET 4.344902 -2.566803 2.604371
											CHANNELS 3 Xrotation Yrotation Zrotation
											JOINT LeftHandThumb2
											{
												OFFSET 3.503593 -2.022797 2.022803
												CHANNELS 3 Xrotation Yrotation Zrotation
												JOINT LeftHandThumb3
												{
													OFFSET 2.816719 -1.626236 1.626234
													CHANNELS 3 Xrotation Yrotation Zrotation
													JOINT LeftHandThumb4
													{
														OFFSET 3.026596 -1.747406 1.747405
														CHANNELS 3 Xrotation Yrotation Zrotation
														End Site
														{
															OFFSET 0.000000 0.000000 0.000000
														}
													}
												}
											}
										}
										JOINT LeftHandIndex1
										{
											OFFSET 12.111603 -0.315857 3.402456
											CHANNELS 3 Xrotation Yrotation Zrotation
											JOINT LeftHandIndex2
											{
												OFFSET 4.509102 0.000000 0.000000
												CHANNELS 3 Xrotation Yrotation Zrotation
												JOINT LeftHandIndex3
												{
													OFFSET 2.907204 0.000000 0.000000
													CHANNELS 3 Xrotation Yrotation Zrotation
													JOINT LeftHandIndex4
													{
														OFFSET 2.981697 0.000000 0.000000
														CHANNELS 3 Xrotation Yrotation Zrotation
														End Site
														{
															OFFSET 0.000000 0.000000 0.000000
														}
													}
												}
											}
										}
										JOINT LeftHandMiddle1
										{
											OFFSET 13.093796 0.000000 0.000000
											CHANNELS 3 Xrotation Yrotation Zrotation
											JOINT LeftHandMiddle2
											{
												OFFSET 3.620201 0.000000 0.000000
												CHANNELS 3 Xrotation Yrotation Zrotation
												JOINT LeftHandMiddle3
												{
													OFFSET 2.832535 0.000000 0.000000
													CHANNELS 3 Xrotation Yrotation Zrotation
													JOINT LeftHandMiddle4
													{
														OFFSET 4.715599 0.000000 0.000000
														CHANNELS 3 Xrotation Yrotation Zrotation
														End Site
														{
															OFFSET 0.000000 0.000000 0.000000
														}
													}
												}
											}
										}
										JOINT LeftHandRing1
										{
											OFFSET 12.918800 0.015854 -3.523114
											CHANNELS 3 Xrotation Yrotation Zrotation
											JOINT LeftHandRing2
											{
												OFFSET 2.935997 0.000000 0.000000
												CHANNELS 3 Xrotation Yrotation Zrotation
												JOINT LeftHandRing3
												{
													OFFSET 3.435600 0.000000 0.000000
													CHANNELS 3 Xrotation Yrotation Zrotation
													JOINT LeftHandRing4
													{
														OFFSET 3.120598 0.000000 0.000000
														CHANNELS 3 Xrotation Yrotation Zrotation
														End Site
														{
															OFFSET 0.000000 0.000000 0.000000
														}
													}
												}
											}
										}
										JOINT LeftHandPinky1
										{
											OFFSET 11.479301 -0.316162 -6.518347
											CHANNELS 3 Xrotation Yrotation Zrotation
											JOINT LeftHandPinky2
											{
												OFFSET 2.474701 0.000000 0.000000
												CHANNELS 3 Xrotation Yrotation Zrotation
												JOINT LeftHandPinky3
												{
													OFFSET 2.073799 0.000000 0.000000
													CHANNELS 3 Xrotation Yrotation Zrotation
													JOINT LeftHandPinky4
													{
														OFFSET 2.978897 0.000000 0.000000
														CHANNELS 3 Xrotation Yrotation Zrotation
														End Site
														{
															OFFSET 0.000000 0.000000 0.000000
														}
													}
												}
											}
										}
									}
								}
							}
						}
					}
					JOINT RightShoulder
					{
						OFFSET -5.639300 9.943001 -1.983000
						CHANNELS 3 Xrotation Yrotation Zrotation
						JOINT RightShoulder_split
						{
							OFFSET -5.639300 9.943001 -1.983000
							CHANNELS 3 Xrotation Yrotation Zrotation
							JOINT RightArm
							{
								OFFSET -11.306598 -5.748199 -0.270300
								CHANNELS 3 Xrotation Yrotation Zrotation
								JOINT RightForeArm
								{
									OFFSET -30.736702 0.000000 0.000000
									CHANNELS 3 Xrotation Yrotation Zrotation
									JOINT RightHand
									{
										OFFSET -26.713104 0.000000 0.000000
										CHANNELS 3 Xrotation Yrotation Zrotation
										JOINT RightHandThumb1
										{
											OFFSET -6.800003 -2.789825 2.712297
											CHANNELS 3 Xrotation Yrotation Zrotation
											JOINT RightHandThumb2
											{
												OFFSET -3.503593 -2.022797 2.022803
												CHANNELS 3 Xrotation Yrotation Zrotation
												JOINT RightHandThumb3
												{
													OFFSET -2.816719 -1.626236 1.626234
													CHANNELS 3 Xrotation Yrotation Zrotation
													JOINT RightHandThumb4
													{
														OFFSET -3.026566 -1.747391 1.747391
														CHANNELS 3 Xrotation Yrotation Zrotation
														End Site
														{
															OFFSET 0.000000 0.000000 0.000000
														}
													}
												}
											}
										}
										JOINT RightHandIndex1
										{
											OFFSET -14.497482 -1.249008 3.526457
											CHANNELS 3 Xrotation Yrotation Zrotation
											JOINT RightHandIndex2
											{
												OFFSET -4.509102 0.000000 0.000000
												CHANNELS 3 Xrotation Yrotation Zrotation
												JOINT RightHandIndex3
												{
													OFFSET -2.907204 0.000000 0.000000
													CHANNELS 3 Xrotation Yrotation Zrotation
													JOINT RightHandIndex4
													{
														OFFSET -2.981697 0.000000 0.000000
														CHANNELS 3 Xrotation Yrotation Zrotation
														End Site
														{
															OFFSET 0.000000 0.000000 0.000000
														}
													}
												}
											}
										}
										JOINT RightHandMiddle1
										{
											OFFSET -15.099701 0.000000 0.000000
											CHANNELS 3 Xrotation Yrotation Zrotation
											JOINT RightHandMiddle2
											{
												OFFSET -3.620201 0.000000 0.000000
												CHANNELS 3 Xrotation Yrotation Zrotation
												JOINT RightHandMiddle3
												{
													OFFSET -2.832535 0.000000 0.000000
													CHANNELS 3 Xrotation Yrotation Zrotation
													JOINT RightHandMiddle4
													{
														OFFSET -4.715599 0.000000 0.000000
														CHANNELS 3 Xrotation Yrotation Zrotation
														End Site
														{
															OFFSET 0.000000 0.000000 0.000000
														}
													}
												}
											}
										}
										JOINT RightHandRing1
										{
											OFFSET -15.621628 -0.772964 -3.512012
											CHANNELS 3 Xrotation Yrotation Zrotation
											JOINT RightHandRing2
											{
												OFFSET -2.935997 0.000000 0.000000
												CHANNELS 3 Xrotation Yrotation Zrotation
												JOINT RightHandRing3
												{
													OFFSET -3.435600 0.000000 0.000000
													CHANNELS 3 Xrotation Yrotation Zrotation
													JOINT RightHandRing4
													{
														OFFSET -3.120598 0.000000 0.000000
														CHANNELS 3 Xrotation Yrotation Zrotation
														End Site
														{
															OFFSET 0.000000 0.000000 0.000000
														}
													}
												}
											}
										}
										JOINT RightHandPinky1
										{
											OFFSET -14.089645 -1.001190 -6.433213
											CHANNELS 3 Xrotation Yrotation Zrotation
											JOINT RightHandPinky2
											{
												OFFSET -2.474701 0.000000 0.000000
												CHANNELS 3 Xrotation Yrotation Zrotation
												JOINT RightHandPinky3
												{
													OFFSET -2.073799 0.000000 0.000000
													CHANNELS 3 Xrotation Yrotation Zrotation
													JOINT RightHandPinky4
													{
														OFFSET -2.978897 0.000000 0.000000
														CHANNELS 3 Xrotation Yrotation Zrotation
														End Site
														{
															OFFSET 0.000000 0.000000 0.000000
														}
													}
												}
											}
										}
									}
								}
							}
						}
					}
				}
			}
		}
	}
	JOINT LeftUpLeg
	{
		OFFSET 9.418100 -4.875099 1.897700
		CHANNELS 3 Xrotation Yrotation Zrotation
		JOINT LeftLeg
		{
			OFFSET 0.162075 -48.429626 2.366100
			CHANNELS 3 Xrotation Yrotation Zrotation
			JOINT LeftFoot
			{
				OFFSET -0.162075 -51.286976 -5.566600
				CHANNELS 3 Xrotation Yrotation Zrotation
				JOINT LeftToeBase
				{
					OFFSET 1.731600 -13.715200 15.999399
					CHANNELS 3 Xrotation Yrotation Zrotation
					JOINT LeftToe_End
					{
						OFFSET 1.266700 -0.078000 10.510900
						CHANNELS 3 Xrotation Yrotation Zrotation
						End Site
						{
							OFFSET 0.000000 0.000000 0.000000
						}
					}
				}
			}
		}
	}
	JOINT RightUpLeg
	{
		OFFSET -9.418100 -4.875099 1.897700
		CHANNELS 3 Xrotation Yrotation Zrotation
		JOINT RightLeg
		{
			OFFSET -0.162176 -48.429573 2.366200
			CHANNELS 3 Xrotation Yrotation Zrotation
			JOINT RightFoot
			{
				OFFSET 0.162176 -51.287025 -5.566700
				CHANNELS 3 Xrotation Yrotation Zrotation
				JOINT RightToeBase
				{
					OFFSET -1.731600 -13.715200 15.999400
					CHANNELS 3 Xrotation Yrotation Zrotation
					JOINT RightToe_End
					{
						OFFSET -1.266700 -0.078000 10.510900
						CHANNELS 3 Xrotation Yrotation Zrotation
						End Site
						{
							OFFSET 0.000000 0.000000 0.000000
						}
					}
				}
			}
		}
	}
}
MOTION
Frames: 5
Frame Time: 0.016667
0.138226 117.222595 -1.725465 3.816410 -3.693386 -0.151685 0.169874 0.311151 -0.017950 0.511368 0.555630 -0.149995 0.000000 0.000000 0.000000 0.508118 0.557000 -0.156049 -12.568421 -1.447143 2.637516 10.197520 3.160634 -2.584440 -0.000000 -0.000000 0.000000 1.604994 -11.385831 -9.553345 0.000000 0.000000 0.000000 4.329344 -15.663034 -64.423000 -0.000003 -12.874655 -0.000016 1.693542 -1.937934 -8.457363 0.699770 -6.020119 19.223941 19.074633 26.512431 -1.026347 3.271075 -0.981146 3.963639 -0.000000 -0.000001 0.000002 0.460243 4.491395 -23.662347 0.883073 3.094844 -31.844193 0.339544 1.967241 -19.583716 0.000000 0.000003 -0.000002 2.489876 8.739270 -25.419386 1.496297 3.911576 -41.853979 0.477046 2.317471 -23.260537 0.000000 0.000002 -0.000000 3.090063 8.505080 -34.940369 1.098181 3.416400 -35.630245 0.533261 2.443974 -24.613777 -0.000000 0.000001 0.000000 3.603280 12.761712 -45.581281 0.673752 2.729602 -27.725809 0.090004 1.024028 -10.045321 -0.000000 -0.000001 -0.000000 2.087553 14.855750 10.815214 0.000000 0.000000 0.000000 -4.515092 3.403429 66.314600 -0.000004 7.534548 -0.000029 10.827025 0.053676 8.057284 -13.495581 -11.552043 -5.371143 13.666566 -20.582667 -6.820333 3.145859 -4.142425 -22.213570 -0.000004 0.000000 0.000001 0.246052 -3.262782 18.902304 0.589436 -2.269660 29.112650 0.172149 -1.255802 15.610696 -0.000001 0.000001 -0.000004 -0.702538 -1.215800 21.259787 0.924245 -2.786658 36.691855 0.558022 -2.212356 28.309435 0.000000 0.000001 -0.000001 -0.941527 -2.664825 38.529241 0.358950 -1.794601 22.620041 0.313727 -1.682017 21.129354 0.000000 -0.000001 -0.000001 -2.260384 -1.124649 39.408125 0.612407 -2.310404 29.687595 0.130087 -1.094187 13.559639 0.000000 -0.000001 -0.000000 -9.057146 12.532079 9.495142 6.960127 4.820575 2.155592 -1.080953 0.682459 -9.373049 0.313821 0.001192 -0.339686 -0.000000 0.000000 0.000000 -9.285639 -8.703322 -7.790880 4.862089 1.469027 -2.854894 0.560057 -0.491132 9.797532 0.363071 -0.003959 0.392202 0.000000 -0.000001 0.000000 
0.109703 117.189964 -1.899319 3.874725 -3.757150 -0.152807 0.240428 0.312218 -0.007082 0.631426 0.553610 -0.167787 0.000000 0.000000 0.000000 0.628205 0.555324 -0.173808 -12.799030 -1.439156 2.599906 9.808686 3.135465 -2.589830 0.000000 0.000000 -0.000000 1.578478 -11.588113 -9.701123 0.000000 0.000000 0.000000 3.709477 -15.651312 -63.917805 -0.000005 -13.252045 0.000007 1.343497 -2.109926 -7.384110 0.699764 -6.020118 19.223945 19.317582 26.877517 -1.279805 3.201946 -1.196584 4.293592 0.000000 -0.000000 0.000001 0.444450 4.459306 -23.967470 0.888253 3.103152 -31.940020 0.328984 1.937325 -19.273571 0.000001 -0.000000 0.000000 2.535943 8.763577 -25.832375 1.499710 3.915375 -41.903972 0.477049 2.317464 -23.260542 -0.000000 0.000001 0.000000 3.082931 8.487990 -35.009289 1.095700 3.412958 -35.588704 0.535406 2.448659 -24.664071 0.000000 -0.000001 -0.000000 3.597278 12.731765 -45.710539 0.674701 2.731404 -27.745798 0.090811 1.028610 -10.090587 -0.000001 -0.000005 -0.000001 2.041501 15.071545 10.942200 0.000000 0.000000 0.000000 -3.225797 3.756699 66.002864 -0.000003 9.794259 0.000045 9.862679 -0.420827 7.280539 -13.495583 -11.552042 -5.371143 14.325596 -21.561869 -6.195259 3.146960 -4.073836 -22.188699 0.000000 0.000002 0.000004 0.228984 -3.178547 19.186269 0.600421 -2.289276 29.389078 0.171955 -1.255118 15.601750 -0.000002 -0.000002 -0.000002 -0.797206 -1.045010 21.750314 0.927000 -2.790344 36.748494 0.557684 -2.211752 28.300771 0.000000 -0.000002 -0.000001 -1.122952 -2.499949 39.183928 0.359236 -1.795278 22.629105 0.312614 -1.679130 21.091303 -0.000000 0.000000 0.000000 -2.498819 -0.909326 39.911056 0.603168 -2.294147 29.457807 0.128638 -1.088159 13.483485 -0.000000 0.000000 -0.000001 -9.465717 12.423884 9.555412 7.468193 4.929029 2.159350 -1.230754 0.674617 -9.227714 0.234319 0.000666 -0.253982 -0.000000 -0.000001 -0.000000 -9.612215 -8.588465 -7.754070 5.192092 1.457989 -2.905815 0.502182 -0.492934 9.804693 0.346406 -0.004146 0.374258 0.000000 -0.000001 -0.000000 
0.087911 117.149834 -2.146223 3.933913 -3.812149 -0.148597 0.305457 0.319648 -0.009718 0.741094 0.564831 -0.174009 0.000000 0.000000 0.000000 0.737876 0.566765 -0.179868 -13.027550 -1.430025 2.556909 9.432718 3.102105 -2.583477 0.000000 0.000000 0.000000 1.559463 -11.724939 -9.805859 0.000000 0.000000 0.000000 3.319661 -15.785061 -63.358795 0.000000 -13.962797 0.000005 0.986449 -2.339568 -6.380622 0.699763 -6.020119 19.223941 19.488551 27.138396 -1.462343 3.145118 -1.352849 4.535622 0.000000 -0.000001 -0.000001 0.422269 4.413580 -24.222424 0.892321 3.109633 -32.014760 0.320123 1.911809 -19.009921 0.000002 -0.000002 0.000003 2.571476 8.778213 -26.172762 1.502909 3.918923 -41.950827 0.477045 2.317453 -23.260540 -0.000000 0.000002 0.000001 3.068299 8.463304 -35.049601 1.094565 3.411358 -35.569651 0.537350 2.452876 -24.709449 -0.000000 0.000001 -0.000000 3.576066 12.700123 -45.745919 0.674039 2.730144 -27.731929 0.091430 1.032069 -10.124949 0.000001 0.000002 -0.000001 2.007792 15.234435 11.003928 0.000000 0.000000 0.000000 -2.088633 4.195694 65.695437 0.000001 11.744302 -0.000000 8.993883 -0.886924 6.490684 -13.495580 -11.552042 -5.371140 14.808146 -22.255777 -5.734953 3.142867 -4.000056 -22.195079 -0.000005 0.000002 0.000002 0.220743 -3.141228 19.550511 0.611581 -2.308953 29.667142 0.171819 -1.254618 15.595499 0.000001 0.000000 -0.000001 -0.872123 -0.924074 22.185605 0.929724 -2.793981 36.804386 0.557431 -2.211269 28.294146 -0.000000 0.000003 -0.000000 -1.270376 -2.375963 39.745052 0.359847 -1.796741 22.648656 0.312197 -1.678047 21.077185 -0.000000 -0.000001 -0.000000 -2.679483 -0.756560 40.319484 0.596748 -2.282754 29.297089 0.127348 -1.082773 13.415510 -0.000000 -0.000000 -0.000000 -9.885807 12.302399 9.617209 7.922715 5.039079 2.160615 -1.312972 0.670423 -9.155659 0.194212 0.000465 -0.210636 -0.000000 0.000002 0.000000 -10.028704 -8.424362 -7.720745 5.625274 1.404170 -2.969264 0.433905 -0.488910 9.784685 0.356531 -0.004370 0.385077 0.000000 0.000001 -0.000000 
0.078449 117.082024 -2.465178 4.015628 -3.859380 -0.160738 0.367436 0.331038 -0.010980 0.845095 0.582982 -0.173281 0.000000 0.000000 0.000000 0.841871 0.585079 -0.179985 -13.256635 -1.419932 2.509387 9.077544 3.070004 -2.564474 0.000000 -0.000000 -0.000000 1.546013 -11.823409 -9.875031 0.000000 0.000000 0.000000 3.184358 -15.975835 -62.813609 -0.000003 -15.030132 -0.000007 0.603737 -2.649374 -5.417966 0.699764 -6.020120 19.223941 19.622995 27.349872 -1.610595 3.095557 -1.473463 4.728851 0.000001 0.000001 0.000001 0.396889 4.361884 -24.462063 0.896001 3.115529 -32.082727 0.312331 1.889042 -18.774605 -0.000000 -0.000001 -0.000002 2.599612 8.783248 -26.481058 1.506018 3.922367 -41.996368 0.477049 2.317459 -23.260542 0.000000 -0.000002 -0.000001 3.048848 8.433293 -35.076197 1.094264 3.410936 -35.564621 0.539134 2.456754 -24.751253 -0.000000 0.000002 -0.000000 3.544185 12.665630 -45.724097 0.672376 2.726981 -27.696878 0.091928 1.034868 -10.152801 0.000000 -0.000002 0.000000 1.983541 15.360146 11.012610 0.000000 0.000000 0.000000 -1.101990 4.675210 65.375791 -0.000005 13.495189 0.000015 8.089609 -1.236829 5.708510 -13.495583 -11.552041 -5.371141 15.172598 -22.767440 -5.385924 3.137433 -3.932698 -22.212054 -0.000002 0.000000 -0.000001 0.217147 -3.128563 19.949828 0.622025 -2.327177 29.925343 0.171704 -1.254223 15.590453 -0.000001 0.000001 -0.000002 -0.936595 -0.829267 22.587077 0.932159 -2.797231 36.854290 0.557174 -2.210797 28.287587 0.000000 0.000002 -0.000000 -1.400667 -2.273153 40.254656 0.360611 -1.798573 22.673016 0.312060 -1.677693 21.072344 0.000001 0.000001 -0.000001 -2.835790 -0.629921 40.680221 0.591914 -2.274109 29.175255 0.126161 -1.077769 13.352339 0.000000 -0.000000 0.000001 -10.464502 12.154554 9.731002 8.551342 5.141328 2.139704 -1.436793 0.673541 -9.128707 0.180237 0.000393 -0.195616 -0.000000 0.000001 0.000000 -10.603435 -8.222113 -7.689576 6.252637 1.335324 -3.028168 0.311170 -0.485452 9.756714 0.372268 -0.004599 0.402148 0.000000 0.000000 -0.000000 
0.077360 116.969727 -2.849712 4.153304 -3.904784 -0.185385 0.428574 0.345231 -0.010885 0.947287 0.606038 -0.169868 0.000000 0.000000 0.000000 0.944043 0.608261 -0.175956 -13.491755 -1.402092 2.457418 8.756118 3.052478 -2.527032 -0.000000 0.000000 0.000000 1.539618 -11.884732 -9.895360 0.000000 0.000000 0.000000 3.262417 -16.228567 -62.252619 -0.000000 -16.476064 0.000012 0.150274 -2.975209 -4.542446 0.699764 -6.020121 19.223943 19.725492 27.521841 -1.730402 3.057852 -1.565688 4.882362 0.000003 -0.000002 -0.000002 0.368737 4.305387 -24.696089 0.899510 3.121118 -32.147272 0.305574 1.869061 -18.568755 -0.000001 -0.000003 -0.000001 2.619727 8.776633 -26.764381 1.509042 3.925726 -42.040552 0.477047 2.317466 -23.260527 -0.000000 -0.000003 0.000000 3.022649 8.395643 -35.084585 1.094630 3.411459 -35.570829 0.540817 2.460398 -24.790400 -0.000000 -0.000000 -0.000001 3.498225 12.625182 -45.637852 0.669566 2.721633 -27.637763 0.092328 1.037055 -10.174547 -0.000000 0.000001 -0.000002 1.970922 15.444950 10.950311 0.000000 0.000000 0.000000 -0.255414 5.223362 65.049998 -0.000008 15.129149 0.000002 6.965122 -1.343505 4.916682 -13.495580 -11.552040 -5.371142 15.416908 -23.102140 -5.152761 3.133338 -3.884403 -22.225639 -0.000002 0.000003 -0.000001 0.216605 -3.131248 20.355019 0.630140 -2.341205 30.124563 0.171581 -1.253778 15.584846 -0.000001 -0.000001 -0.000001 -0.995111 -0.747178 22.951418 0.933993 -2.799679 36.892003 0.556849 -2.210181 28.279142 -0.000000 0.000001 -0.000000 -1.520554 -2.181735 40.712890 0.361551 -1.800814 22.702745 0.311906 -1.677297 21.067162 -0.000000 -0.000001 -0.000000 -2.988294 -0.504424 40.998538 0.588396 -2.267792 29.086477 0.125090 -1.073260 13.295451 0.000001 0.000001 -0.000000 -11.306939 11.973014 9.917974 9.498011 5.230451 2.080349 -1.674122 0.684545 -9.107270 0.174848 0.000377 -0.189832 0.000000 -0.000001 0.000000 -11.440488 -7.976081 -7.675582 7.211200 1.262140 -3.068189 0.065923 -0.485246 9.702901 0.401192 -0.004802 0.433428 0.000000 -0.000000 0.000000 
